<?xml version="1.0" encoding="utf-8"?>
<!-- Generator: Adobe Illustrator 18.1.1, SVG Export Plug-In . SVG Version: 6.00 Build 0)  -->
<svg version="1.1" id="Layer_1" xmlns="http://www.w3.org/2000/svg" xmlns:xlink="http://www.w3.org/1999/xlink" x="0px" y="0px"
	 viewBox="0 0 608.7 220.6" enable-background="new 0 0 608.7 220.6" xml:space="preserve">
<g>
	<path d="M113.6,136.7H50l0.4-4.7l5.5-0.7c1.8-0.2,3-0.5,3.7-0.9c0.7-0.4,1-0.9,1-1.5V60.9c0-0.6-0.3-1.1-0.9-1.3
		c-0.6-0.3-1.8-0.5-3.8-0.8l-5.5-0.6L50,53.6h62.4v21.8h-5l-3.2-10.1c-0.4-1.5-1-2.7-1.6-3.6c-0.6-0.9-1.8-1.5-3.7-2
		c-1.8-0.4-4.5-0.7-8-0.9c-3.5-0.1-7-0.2-13.2-0.2H73v33.1h3.6c2.6,0,4.7,0,6.3-0.1c1.6,0,2.9-0.2,3.8-0.4c0.9-0.2,1.6-0.5,2-0.9
		c0.4-0.4,0.7-0.9,1-1.5l3.1-8.9h5.2l-2.8,28.7H90l-1.1-8.5c-0.1-0.6-0.2-1.1-0.5-1.5c-0.2-0.4-0.8-0.7-1.7-1
		c-0.9-0.3-2.2-0.4-3.8-0.5c-1.6-0.1-3.9-0.1-6.8-0.1H73v34.6h3.7c6.6,0,11.9-0.1,15.7-0.2c3.8-0.1,6.7-0.4,8.7-0.9
		c2-0.5,3.4-1.2,4.1-2.1c0.8-0.9,1.4-2,1.9-3.5l3.2-10.8h5.8L113.6,136.7z"/>
	<path d="M199.5,136.7l0.4-4.7l3.5-0.4c1.9-0.2,3.2-0.5,3.7-0.9c0.5-0.4,0.8-1,0.8-1.7v-27.8c0-3.3-0.3-6-0.9-8.2
		c-0.6-2.2-1.5-3.9-2.6-5.3c-1.1-1.3-2.4-2.3-3.8-2.8c-1.5-0.5-3.1-0.8-4.8-0.8c-2.4,0-4.8,0.6-7.1,1.9c-2.4,1.2-4.5,2.7-6.3,4.3
		c0.1,0.6,0.1,1.2,0.1,1.8c0,0.6,0,1.2,0,1.9v35c0,0.6,0.3,1.1,0.9,1.5c0.6,0.4,2.1,0.7,4.5,1l3.5,0.4l0.4,4.7H163l0.4-4.7l3.5-0.4
		c1.9-0.2,3.2-0.5,3.7-0.9c0.5-0.4,0.8-1,0.8-1.7v-27.8c0-3.3-0.3-6-0.9-8.2c-0.6-2.2-1.5-3.9-2.6-5.3c-1.1-1.3-2.4-2.3-3.8-2.8
		c-1.5-0.5-3.1-0.8-4.8-0.8c-2.4,0-4.8,0.6-7.1,1.8c-2.4,1.2-4.5,2.5-6.2,3.8v16.4v23c0,0.7,0.3,1.2,0.9,1.6c0.6,0.4,2,0.6,4.1,0.8
		l4.5,0.4l0.4,4.7h-29.7l0.4-4.7l3.7-0.4c3-0.3,4.5-1.1,4.5-2.5V95.5c0-2.1-0.1-3.8-0.2-5.1c-0.1-1.2-0.4-2.2-0.9-3
		c-0.4-0.8-1-1.3-1.7-1.7c-0.7-0.4-1.7-0.7-2.9-1l-3.2-0.8l0.1-3.6l19.8-5.2v9.4h0.4c3.3-2.8,6.6-5.1,10-6.8
		c3.4-1.7,6.8-2.6,10.2-2.6c1.9,0,3.9,0.3,5.9,1c1.9,0.7,3.6,1.7,5.1,3.1c1.8,1.8,3.1,3.9,3.9,6.3h0.5c3.4-3.1,6.8-5.6,10.4-7.5
		c3.6-1.9,7.2-2.9,10.8-2.9c1.9,0,3.9,0.3,5.9,1c1.9,0.7,3.6,1.7,5.1,3.1c1.8,1.8,3.1,3.9,3.9,6.4c0.8,2.5,1.2,5.3,1.2,8.5v35
		c0,0.6,0.3,1.1,0.9,1.5c0.6,0.4,2.1,0.7,4.5,1l3.5,0.4l0.4,4.7H199.5z"/>
	<path d="M235.4,136.7l0.4-4.7l3.7-0.4c3-0.3,4.5-1.1,4.5-2.5V95.5c0-2.1-0.1-3.8-0.2-5.1c-0.1-1.2-0.4-2.2-0.9-3
		c-0.4-0.8-1-1.3-1.7-1.7c-0.7-0.4-1.7-0.7-2.9-1l-3.2-0.8l0.1-3.6l19.8-5.2v54.1c0,0.7,0.3,1.2,0.9,1.6c0.6,0.4,2,0.6,4.1,0.8
		l3.9,0.4l0.4,4.7H235.4z M255.5,57.8c0,2-0.6,3.9-1.7,5.5c-1.2,1.6-3,2.4-5.5,2.4c-2.5,0-4.3-0.8-5.5-2.4c-1.2-1.6-1.7-3.4-1.7-5.5
		c0-2,0.6-3.9,1.7-5.5c1.2-1.6,3-2.4,5.5-2.4c2.5,0,4.3,0.8,5.5,2.4C254.9,54,255.5,55.8,255.5,57.8z"/>
	<path d="M316.8,84.1l1,1.2c1.1,1.4,1.9,3,2.7,4.7c0.7,1.7,1.1,3.8,1.1,6.4c0,2.9-0.6,5.7-1.9,8.2c-1.2,2.6-2.9,4.8-5.1,6.8
		c-2.1,2-4.6,3.5-7.4,4.6c-2.8,1.1-5.9,1.7-9.2,1.7c-1.3,0-2.7-0.1-4.2-0.3c-1.5-0.2-2.7-0.4-3.8-0.7c-0.5,0.3-1.1,0.6-1.7,1
		c-0.6,0.4-1.2,0.9-1.9,1.5c-0.6,0.6-1.1,1.2-1.5,1.8c-0.4,0.6-0.6,1.3-0.6,2c0,1.8,0.8,3.3,2.5,4.5c1.6,1.2,3.7,1.8,6.1,1.8
		c2.9,0,5.7-0.1,8.4-0.2c2.7-0.1,5.1-0.2,7.2-0.2c2.7,0,5.3,0.5,7.6,1.4c2.3,0.9,4.4,2.2,6.1,3.8c1.7,1.6,3.1,3.5,4.1,5.7
		c1,2.2,1.5,4.5,1.5,7c0,3.5-0.8,6.8-2.5,9.7c-1.7,2.9-4.1,5.5-7.1,7.6c-3.1,2.1-6.7,3.8-10.8,4.9c-4.2,1.2-8.8,1.7-13.8,1.7
		c-7,0-12.6-1.4-16.8-4.3c-4.2-2.8-6.3-6.6-6.3-11.3c0-2.1,0.4-4,1.1-5.6s1.7-3,2.9-4.3c1.2-1.2,2.6-2.3,4.1-3.3
		c1.6-0.9,3.2-1.8,4.9-2.5V139c-2.7-0.4-4.8-1.7-6.5-3.7c-1.7-2-2.5-4.1-2.5-6.3c0-2.7,1-5.1,3.1-7.4c2.1-2.3,4.7-4.2,7.8-5.6
		c0-0.2,0.1-0.4,0.3-0.5c0.1-0.1,0.2-0.1,0.3-0.1c-3.4-1.6-6.1-3.9-8.2-6.9c-2.1-3-3.1-6.8-3.1-11.4c0-3.1,0.6-6,1.8-8.6
		c1.2-2.7,2.9-5,5-6.9c2.1-1.9,4.7-3.5,7.6-4.6c2.9-1.1,6.1-1.7,9.4-1.7c3.2,0,6.1,0.3,8.6,1c2.5,0.7,3.3,1.3,5.7,2.5l18.4,0.1
		l-0.5,5.4H316.8z M317.8,151.7c0-3.4-1-6.1-3.1-8.3c-2-2.2-5.7-3.4-10.9-3.6c-2.6-0.1-5-0.1-7.3,0.1c-2.3,0.1-4.9,0.2-7.8,0.2
		c-0.6,0.3-1.4,0.7-2.3,1.3c-0.9,0.6-1.8,1.4-2.6,2.4c-0.8,1-1.6,2.1-2.2,3.4c-0.6,1.3-0.9,2.7-0.9,4.3c0,4.3,1.8,7.7,5.3,10.3
		c3.5,2.5,8.1,3.8,13.7,3.8c5.5,0,9.9-1.3,13.2-3.9C316.1,158.9,317.8,155.6,317.8,151.7z M310.5,96.8c0-2.9-0.4-5.6-1.1-8
		c-0.8-2.4-1.9-4.3-3.4-5.9c-2.2-2.2-4.8-3.3-7.7-3.3c-3.7,0-6.7,1.4-9,4.2c-2.3,2.8-3.5,6.4-3.5,11c0,3.4,0.5,6.4,1.5,9
		c1,2.6,2.3,4.8,4,6.4c1.9,2,4.2,2.9,6.8,2.9c3.6,0,6.4-1,8.4-2.9C309.1,107.6,310.5,103.1,310.5,96.8z"/>
	<path d="M384.8,82.6c0,2-0.6,3.8-1.7,5.3c-1.2,1.5-2.9,2.2-5.2,2.2c-1.4,0-2.7-0.4-3.9-1.3c-1.2-0.9-2.2-1.9-2.9-3.1
		c-2,1.2-4.2,2.9-6.6,5.3c-2.5,2.4-4.6,5.4-6.4,8.9v29.4c0,0.7,0.3,1.2,0.9,1.6c0.6,0.4,2,0.6,4.1,0.8l5.2,0.4l0.4,4.7h-30.3
		l0.4-4.7l3.7-0.4c3-0.3,4.5-1.1,4.5-2.5V95.5c0-2.1-0.1-3.8-0.2-5.1c-0.1-1.2-0.4-2.2-0.9-3c-0.4-0.8-1-1.3-1.7-1.7
		c-0.7-0.4-1.7-0.7-2.9-1l-3.5-0.5l0.3-4.7l19.9-4.4v17h0.7c3.6-6,6.8-10.4,9.4-13c2.7-2.7,5.5-4,8.6-4c2.6,0,4.5,0.7,5.9,2.1
		C384.1,78.7,384.8,80.5,384.8,82.6z"/>
	<path d="M485.8,136.7l0.4-4.7l3.5-0.4c1.9-0.2,3.2-0.5,3.7-0.9c0.5-0.4,0.8-1,0.8-1.7v-27.8c0-3.3-0.3-6-0.8-8.2
		c-0.5-2.2-1.3-3.9-2.3-5.3c-1-1.3-2.3-2.3-3.8-2.8c-1.5-0.5-3.2-0.8-5.3-0.8c-2.8,0-5.5,0.6-8.1,1.8s-4.8,2.5-6.5,3.8v16.4v23
		c0,0.7,0.3,1.2,0.9,1.6c0.6,0.4,2,0.6,4.1,0.8l4.5,0.4l0.4,4.7h-29.7l0.4-4.7l3.7-0.4c3-0.3,4.5-1.1,4.5-2.5V95.5
		c0-2.1-0.1-3.8-0.2-5.1c-0.1-1.2-0.4-2.2-0.9-3c-0.4-0.8-1-1.3-1.7-1.7c-0.7-0.4-1.7-0.7-2.9-1l-3.2-0.8l0.1-3.6l19.8-5.2v9.4h0.7
		c3.4-2.8,6.8-5.1,10.4-6.8c3.6-1.7,7.2-2.6,10.8-2.6c1.9,0,3.9,0.3,5.8,1c1.9,0.7,3.6,1.7,5,3.1c1.8,1.8,3,3.9,3.8,6.4
		c0.8,2.5,1.2,5.3,1.2,8.5v35c0,0.6,0.3,1.1,0.9,1.5c0.6,0.4,2.1,0.7,4.5,1l3.5,0.4l0.4,4.7H485.8z"/>
	<path d="M550.1,136.4c-3.3,1.5-6.5,2.3-9.6,2.3c-2.2,0-4.3-0.3-6.2-1c-1.9-0.7-3.6-1.7-5.1-3.3c-1.5-1.5-2.6-3.5-3.4-5.9
		c-0.8-2.4-1.2-5.3-1.1-8.6l0.5-35.8l-10.8-0.7l0.1-4l8.6-7.2L532,65l4.3,0.8l-0.1,11.3h21.8l-0.9,6.6h-20.7l-0.7,33.2
		c-0.2,4.9,0.8,8.3,2.9,10.2c2.1,1.9,5,2.9,8.5,2.9c1.8,0,3.6-0.3,5.5-0.9c1.9-0.6,3.7-1.4,5.5-2.4l0.7,3.3
		C556.3,132.7,553.4,134.8,550.1,136.4z"/>
	<path d="M443,135.1l-1-3.6c-1.7,0.5-3.1,0.9-4.2,0.9c-2.1-0.1-3.4-1.4-3.8-3.1c-0.1-0.6-0.1-4.2-0.1-4.5l0.4-22.5
		c0.3-5.2,0.1-9.6-0.4-13.1c-0.5-3.5-1.5-6.3-3-8.4c-1.5-2.1-3.5-3.6-6.1-4.5c-2.6-0.9-5.9-1.3-9.8-1.3c-2.7,0-5.5,0.5-8.4,1.6
		c-2.9,1.1-5.7,2.4-8.2,4c-2.5,1.6-4.6,3.3-6.3,5.3c-1.6,1.9-2.5,3.7-2.5,5.3c0,1.8,0.6,3.3,1.9,4.5c1.3,1.2,2.9,1.8,5,1.8
		c2.2,0,3.9-0.6,5.2-1.9c1.2-1.3,1.9-2.8,1.9-4.5c0-0.9-0.2-1.7-0.5-2.5c-0.3-0.8-0.7-1.4-1.1-2c-0.4-0.6-0.8-1-1.1-1.4
		c-0.3-0.4-0.5-0.6-0.5-0.8c0-0.3,0.3-0.6,0.9-0.9c0.6-0.4,1.4-0.7,2.3-1c0.9-0.3,2-0.6,3.2-0.8c1.2-0.2,2.3-0.3,3.4-0.3
		c1.9,0,3.7,0.2,5.3,0.7c1.6,0.5,2.9,1.4,4.1,2.7c1.1,1.3,2,3.2,2.6,5.5c0.6,2.4,0.9,5.4,0.9,9.1v1.2c-11.3,2.7-19.7,5.7-25.1,9.2
		c-5.4,3.5-8.1,7.9-8.1,13.4c0,2.2,0.4,4.3,1.3,6.2c0.9,1.9,2.1,3.5,3.5,4.9c1.5,1.4,3.1,2.5,5.1,3.3c1.9,0.8,3.9,1.2,6.1,1.2
		c3.4,0,6.4-1,9-2.9c2.7-1.9,5.1-4.1,7.4-6.7h0.7c0.1,1.4,0.3,2.6,0.6,3.7c0,0.1,0,0.1,0.1,0.2c0.1,0.3,0.2,0.5,0.3,0.7
		c0.4,1.3,1,2.3,1.8,3.1c1.1,1.1,2.6,1.6,4.3,1.9c0,0,0,0,0.1,0c0.5,0.1,1.1,0.1,1.6,0.1c0.1,0,0.1,0,0.2,0c0,0,0.1,0,0.1,0
		c0.1,0,0.2,0,0.3,0C435.6,138.8,439.8,137.2,443,135.1z M423,123.5c-4.1,3.7-8.5,6.9-12.2,6.9c-2.6,0-4.8-0.9-6.8-2.7
		c-1.9-1.8-2.9-4.2-2.9-7.3c0-1.4,0.3-2.8,0.9-4.2c0.6-1.4,1.8-2.7,3.4-4c1.6-1.3,3.9-2.5,6.8-3.8c2.9-1.2,6.5-2.4,10.8-3.5
		L423,123.5z"/>
</g>
</svg>
